<svg width="148" height="29" viewBox="0 0 148 29" fill="none" xmlns="http://www.w3.org/2000/svg">
<path d="M5.62699 14.756C5.62699 15.114 6.21774 15.3587 6.55365 15.2318L8.10813 14.6495C8.51818 14.4977 8.57147 14.1692 8.57147 13.7433V11.4777C9.85697 11.1403 10.9734 10.3577 11.713 9.27549C12.4527 8.1933 12.7652 6.8852 12.5924 5.59455C12.4196 4.30389 11.7733 3.11856 10.7737 2.25907C9.7741 1.39958 8.4893 0.924464 7.1583 0.922104C6.43817 0.922096 5.72514 1.06122 5.06014 1.33148C4.39515 1.60174 3.7913 1.99782 3.28328 2.49697C2.77526 2.99611 2.37307 3.58849 2.09982 4.24009C1.82656 4.89168 1.68762 5.58964 1.69098 6.2939C1.69098 6.38679 1.69098 6.48195 1.69098 6.57257C1.70542 6.83682 1.74027 7.09963 1.79523 7.35874C1.79523 7.3882 1.79523 7.41765 1.81144 7.4471C2.24929 9.4114 3.64624 10.9769 5.61772 11.4867L5.62699 14.756ZM7.18147 9.10554C6.63164 9.10554 6.09415 8.94609 5.63699 8.64735C5.17982 8.34861 4.8235 7.924 4.61309 7.42721C4.40268 6.93043 4.34762 6.38378 4.45489 5.85639C4.56216 5.329 4.82693 4.84457 5.21571 4.46434C5.6045 4.08412 6.09985 3.82518 6.63912 3.72028C7.17838 3.61538 7.73735 3.66922 8.24533 3.87499C8.7533 4.08077 9.18748 4.42924 9.49295 4.87633C9.79842 5.32343 9.96146 5.84907 9.96146 6.38679C9.96146 7.10785 9.66857 7.79937 9.14722 8.30924C8.62587 8.8191 7.91877 9.10554 7.18147 9.10554Z" fill="#FF5500"/>
<path d="M8.55053 16.2989V18.3085C8.55053 18.927 8.38373 19.1468 7.79067 19.3711L3.75736 20.8438C3.20368 21.0522 2.72413 21.0907 2.3442 20.8913L0.954198 20.3023C0.430632 20.0984 0.402832 19.7495 0.402832 19.1989V18.7911C0.402832 18.2179 0.808248 18.0502 1.3573 17.8463L7.58217 15.5807C8.22852 15.3473 8.55053 15.6192 8.55053 16.2989Z" fill="#FF5500"/>
<path d="M8.55053 20.7191V23.2725C8.56493 23.4187 8.52645 23.5652 8.44178 23.6865C8.35712 23.8078 8.23165 23.8962 8.0872 23.9363L3.32414 25.6423C3.1807 25.7062 3.0244 25.7378 2.86681 25.7346C2.70922 25.7315 2.55436 25.6938 2.4137 25.6242L0.792031 24.9944C0.677329 24.9499 0.578913 24.8728 0.509524 24.773C0.440134 24.6733 0.402966 24.5554 0.402832 24.4348V23.2408C0.402932 23.118 0.441365 22.9982 0.512989 22.8974C0.584612 22.7966 0.68601 22.7196 0.803615 22.6766L7.72117 20.1641C7.81348 20.1308 7.91261 20.1196 8.01025 20.1314C8.1079 20.1433 8.20122 20.1778 8.28242 20.2321C8.36362 20.2865 8.43033 20.3591 8.47698 20.4438C8.52362 20.5285 8.54884 20.6229 8.55053 20.7191Z" fill="#FF5500"/>
<path d="M8.60868 25.2821L8.57161 27.6406C8.57161 28.0711 8.33995 28.1753 7.93916 28.0077L4.91592 26.7344C4.40625 26.5214 4.37613 25.9278 5.14758 25.7647L7.9438 24.761C8.33995 24.607 8.60868 24.8607 8.60868 25.2821Z" fill="#FF5500"/>
<path d="M19.9948 12.0667H17.5229V25.7488H19.9948V12.0667Z" fill="black"/>
<path d="M39.1654 11.7812C38.599 11.7788 38.035 11.8551 37.4905 12.0078C37.0129 12.1396 36.5573 12.338 36.1376 12.5969C35.74 12.8434 35.3771 13.1397 35.058 13.4782C34.8346 13.7163 34.6243 13.9659 34.4279 14.2258C34.0482 13.5803 33.5306 13.0223 32.9105 12.5901C32.0698 12.0317 31.0697 11.7485 30.054 11.7812C29.5162 11.7755 28.9808 11.852 28.4671 12.0078C28.0292 12.1411 27.6133 12.3357 27.2323 12.5855C26.8697 12.8229 26.5416 13.1071 26.257 13.4306C26.1365 13.5643 26.0253 13.7025 25.9095 13.843V12.0667H23.4399V25.7465H25.9095V17.9732C25.9011 17.4286 25.9921 16.887 26.1782 16.3737C26.3497 15.9153 26.6066 15.4921 26.9358 15.1253C27.2455 14.7804 27.6249 14.5019 28.0501 14.3074C28.4868 14.115 28.9611 14.0176 29.4401 14.0219C30.4641 14.0219 31.2425 14.3369 31.8216 14.9826C32.4008 15.6283 32.695 16.5685 32.695 17.7421V25.7465H35.1391V17.8984C35.1359 17.3297 35.2396 16.7653 35.4449 16.2332C35.6146 15.7819 35.8736 15.3677 36.2071 15.0143C36.5203 14.6935 36.8992 14.441 37.3191 14.2734C37.75 14.1049 38.2102 14.0195 38.6743 14.0219C39.7145 14.0219 40.5022 14.3369 41.0813 14.9826C41.6605 15.6283 41.9547 16.5685 41.9547 17.7919V25.7465H44.4243V17.332C44.4243 15.626 43.9609 14.2621 43.0343 13.2765C42.1076 12.291 40.7941 11.7812 39.1654 11.7812Z" fill="black"/>
<path d="M59.2232 13.886C58.5587 13.2347 57.7722 12.7147 56.9065 12.3545C56.0183 11.9689 55.0597 11.7624 54.088 11.7472C53.1163 11.732 52.1515 11.9084 51.2511 12.266C50.3507 12.6236 49.5332 13.155 48.8475 13.8285C48.1617 14.5019 47.6218 15.3036 47.2599 16.1856C46.8988 17.0626 46.7147 17.9997 46.7178 18.9452C46.7138 19.8863 46.8979 20.8191 47.2599 21.6911C47.6075 22.5365 48.1224 23.3064 48.775 23.9567C49.4335 24.6063 50.2127 25.1269 51.0708 25.4905C51.9822 25.8712 52.9642 26.0633 53.9551 26.0547C54.9568 26.0613 55.9493 25.8678 56.8718 25.486C57.7409 25.1249 58.5283 24.599 59.1884 23.9386C60.1851 22.9228 60.8605 21.6471 61.1334 20.2649C61.4063 18.8826 61.265 17.4527 60.7267 16.1471C60.3808 15.3049 59.87 14.5368 59.2232 13.886ZM58.4031 20.8573C58.1817 21.4298 57.8506 21.9558 57.4278 22.407C57.0061 22.8475 56.4968 23.1991 55.9312 23.4402C55.3244 23.6962 54.6692 23.8243 54.0084 23.8163C53.3555 23.8226 52.7089 23.6904 52.1133 23.4288C51.544 23.179 51.0301 22.8226 50.6006 22.3798C50.1668 21.9269 49.827 21.396 49.5998 20.8166C49.3554 20.1997 49.232 19.5433 49.2361 18.8817C49.231 18.2242 49.3495 17.5715 49.5859 16.9559C49.8082 16.3811 50.1356 15.8507 50.5519 15.3904C50.9628 14.9428 51.4678 14.5873 52.0323 14.3482C52.6389 14.0914 53.2941 13.9625 53.9551 13.9698C54.6081 13.9647 55.2545 14.0976 55.8501 14.3595C56.4244 14.613 56.9429 14.9731 57.3768 15.4198C57.8109 15.8764 58.1515 16.4101 58.3799 16.9922C58.6252 17.6088 58.7486 18.2654 58.7436 18.927C58.753 19.5855 58.6375 20.24 58.4031 20.8573Z" fill="black"/>
<path d="M68.564 22.6812L64.1601 12.0667H61.438L67.4961 25.8485H69.5764L75.6623 12.0667H72.9912L68.564 22.6812Z" fill="black"/>
<path d="M87.4032 13.9132C86.8373 13.2546 86.1324 12.7236 85.3367 12.3567C84.4765 11.9811 83.5454 11.7858 82.6034 11.7835C81.6613 11.7811 80.7292 11.9718 79.8671 12.3431C79.0594 12.7045 78.3358 13.2233 77.7404 13.8679C77.1343 14.53 76.6626 15.2989 76.3504 16.1335C76.0144 17.0233 75.8448 17.9649 75.85 18.9134C75.8399 19.9068 76.0304 20.8923 76.4106 21.8134C76.76 22.6579 77.2747 23.4275 77.9257 24.0791C78.5617 24.7053 79.3195 25.2006 80.1544 25.5358C81.0109 25.8814 81.929 26.0577 82.8556 26.0547C84.015 26.0899 85.1656 25.8481 86.2078 25.3501C87.1138 24.8782 87.9252 24.2504 88.6032 23.4968L88.7515 23.3314L87.1646 21.9403L87.0117 22.0921C86.4927 22.6215 85.8895 23.0652 85.2255 23.4062C84.5045 23.7482 83.7099 23.9153 82.9089 23.8933C82.3557 23.8952 81.8066 23.8009 81.2872 23.6146C80.7743 23.4268 80.3026 23.1454 79.8972 22.7854C79.4728 22.4065 79.1261 21.9521 78.8756 21.4464C78.6346 20.9457 78.4781 20.4101 78.4122 19.8605H89.0689L89.0967 19.6701C89.1144 19.5493 89.1237 19.4274 89.1245 19.3054V19.0312C89.1307 18.0795 88.9861 17.1326 88.6959 16.2241C88.4232 15.3787 87.9841 14.5937 87.4032 13.9132ZM78.4006 17.9551C78.4718 17.445 78.6129 16.9466 78.82 16.4733C79.037 15.9734 79.3403 15.5136 79.7165 15.114C80.0708 14.7349 80.4973 14.427 80.9721 14.2077C81.4555 13.989 81.9824 13.8776 82.515 13.8815C83.0689 13.8686 83.6184 13.9787 84.1225 14.2036C84.6265 14.4284 85.0717 14.7622 85.4248 15.1797C85.7708 15.5822 86.0392 16.0428 86.2171 16.5391C86.3832 16.9982 86.4974 17.4738 86.5576 17.9573L78.4006 17.9551Z" fill="black"/>
<path d="M94.052 6.61336H91.5801V25.7488H94.052V6.61336Z" fill="black"/>
<path d="M111.256 22.2076L107.757 12.0146H105.756L102.281 22.2031L98.8847 12.0667H96.2529L101.15 25.8485H103.254L106.757 15.8684L110.232 25.8485H112.312L117.235 12.0667H114.654L111.256 22.2076Z" fill="black"/>
<path d="M129.314 13.9132C128.748 13.2546 128.043 12.7236 127.247 12.3567C126.387 11.9811 125.456 11.7858 124.514 11.7835C123.572 11.7811 122.64 11.9718 121.778 12.3431C120.97 12.7045 120.246 13.2233 119.651 13.8679C119.046 14.5306 118.574 15.2993 118.261 16.1335C117.925 17.0233 117.755 17.9649 117.761 18.9134C117.751 19.9068 117.941 20.8923 118.321 21.8134C118.671 22.6579 119.185 23.4275 119.836 24.0791C120.472 24.7053 121.23 25.2006 122.065 25.5358C122.922 25.8814 123.84 26.0577 124.766 26.0547C125.923 26.0888 127.071 25.847 128.111 25.3501C129.017 24.8782 129.829 24.2504 130.507 23.4968L130.66 23.3359L129.073 21.9448L128.92 22.0966C128.401 22.626 127.798 23.0698 127.134 23.4107C126.413 23.7527 125.618 23.9198 124.817 23.8978C124.264 23.8998 123.715 23.8054 123.196 23.6191C122.683 23.4314 122.211 23.15 121.806 22.7899C121.381 22.411 121.034 21.9566 120.784 21.4509C120.543 20.9502 120.386 20.4146 120.321 19.865H130.977L131.005 19.6747C131.023 19.5538 131.032 19.432 131.033 19.3099V19.0312C131.039 18.0795 130.894 17.1326 130.604 16.2241C130.332 15.3789 129.894 14.5939 129.314 13.9132ZM120.311 17.9551C120.382 17.445 120.524 16.9466 120.731 16.4733C120.949 15.9738 121.252 15.5141 121.627 15.114C121.981 14.7349 122.408 14.427 122.883 14.2077C123.366 13.989 123.893 13.8776 124.426 13.8815C124.98 13.8686 125.529 13.9787 126.033 14.2036C126.537 14.4284 126.982 14.7622 127.335 15.1797C127.681 15.5822 127.95 16.0428 128.128 16.5391C128.294 16.9982 128.408 17.4738 128.468 17.9573L120.311 17.9551Z" fill="black"/>
<path d="M146.862 15.8888C146.513 15.0526 145.997 14.2925 145.345 13.6527C144.727 13.0552 143.995 12.5826 143.191 12.2616C142.411 11.9478 141.577 11.7846 140.735 11.7812C140.13 11.775 139.528 11.8614 138.951 12.0373C138.438 12.1947 137.949 12.4179 137.496 12.7011C137.063 12.9751 136.666 13.3008 136.315 13.6708C136.127 13.8679 135.949 14.0718 135.779 14.278V6.61336H133.308V25.7466H135.779V23.6599C135.939 23.8525 136.111 24.0383 136.291 24.2195C136.646 24.575 137.043 24.8876 137.473 25.1507C137.932 25.4261 138.425 25.641 138.942 25.7896C139.524 25.9542 140.128 26.0351 140.735 26.0298C141.588 26.0284 142.432 25.8613 143.218 25.5381C144.019 25.2116 144.746 24.7343 145.359 24.1334C146.003 23.4909 146.514 22.7322 146.862 21.8995C147.253 20.9441 147.446 19.9221 147.43 18.893C147.446 17.8648 147.253 16.8436 146.862 15.8888ZM144.546 20.991C144.329 21.56 143.998 22.0808 143.573 22.5226C143.167 22.9325 142.676 23.2537 142.134 23.4651C141.012 23.9067 139.758 23.8977 138.643 23.4402C138.086 23.2042 137.579 22.8701 137.146 22.4546C136.694 22.0143 136.338 21.4886 136.099 20.9094C135.834 20.2693 135.701 19.5838 135.71 18.893C135.701 18.2074 135.833 17.5269 136.099 16.8925C136.34 16.3179 136.696 15.7964 137.146 15.3587C137.581 14.9434 138.09 14.6094 138.648 14.3731C139.194 14.1416 139.783 14.0221 140.378 14.022C140.977 14.019 141.57 14.1346 142.123 14.3618C142.667 14.5862 143.158 14.9196 143.563 15.3405C143.991 15.7893 144.327 16.3147 144.55 16.888C144.803 17.539 144.926 18.2309 144.914 18.927C144.922 19.6317 144.795 20.3316 144.541 20.991H144.546Z" fill="black"/>
<path d="M20.1527 6.99625H17.3936V9.61758H20.1527V6.99625Z" fill="black"/>
</svg>